<svg width="935" height="186" viewBox="0 0 935 186" fill="none" xmlns="http://www.w3.org/2000/svg">
<path d="M793.727 186L819.643 134L771 35H798.511L832.801 107.8H833.199L867.289 35H895L821.238 186H793.727Z" fill="white"/>
<path d="M649 141V121.4L724.811 56.4V56H652V35H761.416V54.6L685.805 119.6V120H762V141H649Z" fill="white"/>
<path d="M526 141V1H550.889V46H551.29C560.122 37 572.767 32 587.219 32C617.527 32 638 51.2 638 79.2V141H613.111V83C613.111 65.2 601.871 54.2 582.803 54.2C563.735 54.2 550.889 66.2 550.889 83.2V141H526Z" fill="white"/>
<path d="M403 88C403 56.2 428.245 32 460.903 32C474.327 32 485.948 35.4 495.766 42.2C505.583 49.2 511.995 58.2 515 69.6L491.758 76C487.15 61.8 476.131 53.8 460.903 53.8C442.07 53.8 427.844 67.8 427.844 88C427.844 108.2 442.07 122.2 460.903 122.2C476.331 122.2 487.15 114.6 491.758 100L515 106.4C511.995 117.8 505.583 126.8 495.766 133.6C485.948 140.6 474.327 144 460.903 144C428.245 144 403 119.8 403 88Z" fill="white"/>
<path d="M280 88.4C280 55.4 304.085 32 337.201 32C371.32 32 394 56.4 394 88.6V96H304.687C305.489 112.6 318.937 123.4 338.405 123.4C352.655 123.4 363.292 117.6 373.127 105.4L389.785 120.2C377.542 136 360.482 144 338.606 144C302.68 144 280 122 280 88.4ZM305.088 78H369.514C368.109 63 355.063 52.6 337.602 52.6C319.739 52.6 306.694 63 305.088 78Z" fill="white"/>
<path d="M224.441 141V25H174V1H301V25H250.16V141H224.441Z" fill="white"/>
<path d="M43 27.9997H0V-0.000266043C2.93706 -0.000266043 14.6294 -0.000766079 44 -0.000266043C67.5 0.000134045 84 16.5001 84 39.9997V99.9997C84 107 90 113 97 113H139V141L135.059 141C128.676 141 116.263 141 96 141C71 141 56 123 56 101V40.9997C56 33.9997 50 27.9997 43 27.9997Z" fill="white"/>
<path d="M96 27.9997V-0.000266043H139V27.9997H96Z" fill="white"/>
<path d="M917 129C926.941 129 935 137.07 935 146.976C935 156.93 926.941 165 917 165C907.059 165 899 156.93 899 146.976C899 137.07 907.059 129 917 129ZM917 161.617C925.011 161.617 931.574 155.046 931.574 146.976C931.574 139.003 925.011 132.431 917 132.431C908.989 132.431 902.426 139.003 902.426 146.976C902.426 155.046 908.989 161.617 917 161.617ZM924.866 144.028C924.866 146.638 923.66 148.426 921.44 149.247L925.349 155.626H920.185L916.855 149.73H914.056V155.626H909.568V138.326H918.399C922.501 138.326 924.866 140.452 924.866 144.028ZM914.056 146.299H917.531C919.316 146.299 920.233 145.43 920.233 144.028C920.233 142.627 919.316 141.805 917.531 141.805H914.056V146.299Z" fill="white"/>
</svg>
