<svg width="112" height="112" viewBox="0 0 112 112" fill="none" xmlns="http://www.w3.org/2000/svg">
<path d="M0 56C0 24.2 25.2451 0 57.9034 0C71.3274 0 82.9481 3.4 92.7656 10.2C102.583 17.2 108.995 26.2 112 37.6L88.7585 44C84.1503 29.8 73.1306 21.8 57.9034 21.8C39.0697 21.8 24.8443 35.8 24.8443 56C24.8443 76.2 39.0697 90.2 57.9034 90.2C73.3309 90.2 84.1503 82.6 88.7585 68L112 74.4C108.995 85.8 102.583 94.8 92.7656 101.6C82.9481 108.6 71.3274 112 57.9034 112C25.2451 112 0 87.8 0 56Z" fill="white"/>
</svg>
