<svg width="36" height="36" viewBox="0 0 36 36" fill="none" xmlns="http://www.w3.org/2000/svg">
<path d="M18 0C27.941 0 36 8.0698 36 17.9758C36 27.9302 27.941 36 18 36C8.05898 36 0 27.9302 0 17.9758C0 8.0698 8.05898 0 18 0ZM18 32.6175C26.0107 32.6175 32.5737 26.0456 32.5737 17.9758C32.5737 10.0027 26.0107 3.43087 18 3.43087C9.98928 3.43087 3.42627 10.0027 3.42627 17.9758C3.42627 26.0456 9.98928 32.6175 18 32.6175ZM25.866 15.0282C25.866 17.6376 24.6595 19.4255 22.4397 20.247L26.3485 26.6255H21.185L17.8552 20.7302H15.0563V26.6255H10.5684V9.32617H19.3995C23.5013 9.32617 25.866 11.4523 25.866 15.0282ZM15.0563 17.2993H18.5308C20.3164 17.2993 21.2332 16.4295 21.2332 15.0282C21.2332 13.6268 20.3164 12.8054 18.5308 12.8054H15.0563V17.2993Z" fill="white"/>
</svg>
