<svg width="43" height="35" viewBox="0 0 43 35" fill="none" xmlns="http://www.w3.org/2000/svg">
<path fill-rule="evenodd" clip-rule="evenodd" d="M3.88889 0H38.8889C41.0278 0 42.7778 1.75 42.7778 3.88889V27.2222C42.7778 29.3611 41.0278 31.1111 38.8889 31.1111H29.1667V35H13.6111V31.1111H3.88889C1.75 31.1111 0 29.3611 0 27.2222V3.88889C0 1.75 1.75 0 3.88889 0ZM3.89062 27.222H38.8906V3.88867H3.89062V27.222ZM34.9983 9.72217H13.6094V13.6111H34.9983V9.72217ZM13.6094 17.5H34.9983V21.3889H13.6094V17.5ZM11.6701 9.72217H7.78125V13.6111H11.6701V9.72217ZM7.78125 17.5H11.6701V21.3889H7.78125V17.5Z" fill="#fff"/>
</svg>
