<svg width="35" height="35" viewBox="0 0 35 35" fill="none" xmlns="http://www.w3.org/2000/svg">
<path d="M34.6288 14.5588L30.3736 14.1176C30.0801 13.0882 29.6399 12.0588 29.1997 11.1765L31.8409 7.79412C32.1343 7.5 31.9876 7.05882 31.8409 6.76471L28.6128 3.52941C28.3193 3.23529 27.8791 3.23529 27.5856 3.52941L24.2108 6.17647C23.3304 5.58824 22.3033 5.29412 21.2762 5L20.836 0.735294C20.5425 0.294118 20.249 0 19.9556 0H15.4069C14.9667 0 14.6732 0.294118 14.6732 0.588235L14.233 4.85294C13.2059 5.14706 12.1788 5.58824 11.2984 6.02941L7.7768 3.52941C7.48334 3.23529 7.04314 3.38235 6.74968 3.52941L3.52157 6.76471C3.22811 7.05882 3.22811 7.5 3.52157 7.79412L6.16275 11.1765C5.57582 12.0588 5.28236 13.0882 4.98889 14.1176L0.733661 14.5588C0.293464 14.7059 0 15 0 15.2941V19.8529C0 20.2941 0.293464 20.5882 0.586929 20.5882L4.84216 21.0294C5.13563 22.0588 5.57582 23.0882 6.01602 23.9706L3.37484 27.3529C3.08138 27.6471 3.22811 28.0882 3.37484 28.3824L6.60295 31.6176C6.89641 31.9118 7.33661 31.9118 7.63007 31.6176L11.0049 28.9706C11.8853 29.5588 12.9124 29.8529 13.9396 30.1471L14.3798 34.4118C14.3798 34.8529 14.6732 35 15.1134 35H19.6621C20.1023 35 20.3958 34.7059 20.3958 34.4118L20.836 30.1471C21.8631 29.8529 22.8902 29.4118 23.7706 28.9706L27.1455 31.6176C27.4389 31.9118 27.8791 31.7647 28.1726 31.6176L31.4007 28.3824C31.6941 28.0882 31.6941 27.6471 31.4007 27.3529L28.7595 23.9706C29.3464 23.0882 29.6399 22.0588 29.9334 21.0294L34.1886 20.5882C34.6288 20.5882 34.7755 20.2941 34.7755 19.8529V15.2941C35.2157 15 34.9223 14.7059 34.6288 14.5588ZM17.6079 23.5294C14.3798 23.5294 11.7386 20.8824 11.7386 17.6471C11.7386 14.4118 14.3798 11.7647 17.6079 11.7647C20.836 11.7647 23.4771 14.4118 23.4771 17.6471C23.4771 20.8824 20.836 23.5294 17.6079 23.5294Z" fill="#fff"/>
</svg>
