<svg width="45" height="33" viewBox="0 0 45 33" fill="none" xmlns="http://www.w3.org/2000/svg">
<path fill-rule="evenodd" clip-rule="evenodd" d="M0.642993 14.7573L8.05091 6.0064C8.52101 5.45479 9.19443 5.10821 9.92362 5.04349C10.6528 4.97877 11.3782 5.20094 11.9411 5.66104C12.503 6.12299 12.8553 6.78537 12.9209 7.50242C12.9866 8.2195 12.7603 8.93316 12.2914 9.48642L6.35431 16.4977L12.2913 23.5088L12.2921 23.5097C12.5267 23.7833 12.7039 24.0998 12.8138 24.4409C12.9236 24.7821 12.9638 25.1412 12.9322 25.4976C12.9006 25.854 12.7977 26.2009 12.6294 26.5181C12.4611 26.8354 12.2307 27.1169 11.9514 27.3464C11.6721 27.5759 11.3494 27.7488 11.0018 27.8552C10.6542 27.9616 10.2887 27.9993 9.92619 27.9661C9.56371 27.933 9.21151 27.8296 8.88985 27.6621C8.56819 27.4945 8.28283 27.2653 8.05132 26.9892L0.642643 18.2374C0.227398 17.7495 0 17.1336 0 16.4976C0 15.8615 0.227748 15.2452 0.642993 14.7573Z" fill="#fff"/>
<path fill-rule="evenodd" clip-rule="evenodd" d="M36.9462 6.00579L44.3545 14.7572C44.7697 15.2451 44.9975 15.8614 44.9975 16.4974C44.9975 17.1335 44.7698 17.7498 44.3545 18.2377L36.9454 26.9899C36.7139 27.266 36.4292 27.4945 36.1075 27.662C35.7858 27.8296 35.4336 27.9329 35.0712 27.9661C34.7087 27.9993 34.3431 27.9615 33.9955 27.8552C33.648 27.7488 33.3253 27.5758 33.0459 27.3463C32.7666 27.1169 32.5363 26.8354 32.368 26.5181C32.1997 26.2008 32.0968 25.854 32.0652 25.4976C32.0335 25.1411 32.0738 24.782 32.1836 24.4409C32.2934 24.0998 32.4707 23.7833 32.7053 23.5097L38.6432 16.4975L32.7062 9.4862L32.7054 9.48526C32.4708 9.21165 32.2936 8.89518 32.1837 8.55405C32.0739 8.21293 32.0337 7.85384 32.0653 7.4974C32.0969 7.14096 32.1998 6.79414 32.3681 6.47687C32.5364 6.1596 32.7668 5.87811 33.0461 5.64862C33.3254 5.41914 33.6481 5.2462 33.9957 5.13981C34.3433 5.03343 34.7088 4.99572 35.0713 5.02887C35.4338 5.06202 35.786 5.16537 36.1076 5.33294C36.4293 5.5005 36.7147 5.72966 36.9462 6.00579Z" fill="#fff"/>
<path fill-rule="evenodd" clip-rule="evenodd" d="M17.624 30.7121L23.55 1.5441C23.6562 1.04904 23.9554 0.612476 24.3862 0.329244C24.8174 0.0457844 25.3453 -0.0607865 25.8564 0.0335262C26.1076 0.0826909 26.3462 0.179923 26.5586 0.319405C26.7721 0.459539 26.9548 0.63948 27.0966 0.848596C27.2385 1.05769 27.3367 1.29194 27.3861 1.53785C27.4354 1.78374 27.4349 2.03675 27.3846 2.28246L21.4576 31.4554L21.4574 31.4568C21.3701 31.8892 21.1331 32.2801 20.7848 32.562C20.4364 32.844 19.9984 32.9993 19.5452 32.9999L19.5411 33C19.4145 33.0007 19.2882 32.9883 19.1643 32.9632L19.1557 32.9615C18.9033 32.9126 18.6634 32.8151 18.45 32.675C18.2366 32.5349 18.0539 32.3549 17.912 32.1459C17.7702 31.9368 17.6719 31.7025 17.6226 31.4567C17.5732 31.2108 17.5737 30.9578 17.624 30.7121Z" fill="#fff"/>
</svg>
