<svg width="46" height="33" viewBox="0 0 46 33" fill="none" xmlns="http://www.w3.org/2000/svg">
<path d="M25 32.8001V23.3715H31.9L22.7 11.5858L13.5 23.3715H20.4V32.8001H25Z" fill="#848484"/>
<path fill-rule="evenodd" clip-rule="evenodd" d="M11.5563 13.4034L10.3948 13.6123C6.87046 14.247 4 17.5511 4 21.0144C4 25.0718 7.22322 28.3858 11.2 28.3858H15.5V32.5001H11.2C5.03148 32.5001 0 27.3543 0 21.0144C0 16.0145 3.60796 11.3458 8.42896 9.86908L8.56328 9.82794L8.61769 9.69842C11.0873 3.81916 16.4882 0.100098 22.7 0.100098C30.7289 0.100098 37.386 6.27308 38.3735 14.2438L38.3988 14.4479L38.5982 14.4979C40.534 14.9839 42.2567 16.1209 43.4901 17.7292C44.7237 19.3376 45.3966 21.3243 45.4 23.372C45.3997 28.413 41.4011 32.5001 36.5 32.5001H29.9V28.3858H36.5C39.2095 28.3858 41.4 26.1302 41.4 23.3715C41.4 20.6129 39.2095 18.3572 36.5 18.3572H34.5V16.3001C34.5 9.64275 29.2137 4.21438 22.7 4.21438C17.7206 4.21438 13.5962 7.30853 11.9413 12.2567L11.5563 13.4034Z" fill="#848484"/>
</svg>
