<svg width="46" height="35" viewBox="0 0 46 35" fill="none" xmlns="http://www.w3.org/2000/svg">
<path fill-rule="evenodd" clip-rule="evenodd" d="M4.11765 0H41.1765C43.4412 0 45.2941 1.85294 45.2941 4.11765V30.8824C45.2941 33.1471 43.4412 35 41.1765 35H4.11765C1.85294 35 0 33.1471 0 30.8824V4.11765C0 1.85294 1.85294 0 4.11765 0ZM4.11719 4.11768V30.8824H20.5878V4.11768H4.11719ZM41.1737 30.8824H24.7031V4.11768H41.1737V30.8824ZM39.1186 11.3237H26.7656V14.412H39.1186V11.3237ZM26.7656 16.4707H39.1186V19.5589H26.7656V16.4707ZM39.1186 21.6177H26.7656V24.7059H39.1186V21.6177Z" fill="#fff"/>
</svg>
