<svg width="35" height="35" viewBox="0 0 35 35" fill="none" xmlns="http://www.w3.org/2000/svg">
<path fill-rule="evenodd" clip-rule="evenodd" d="M34.838 29.9711L34.8399 29.9729C35.0509 30.1838 35.0562 30.5235 34.8372 30.7488L34.8364 30.7497L30.7993 34.8322L30.7937 34.8381C30.6969 34.9399 30.5539 34.9998 30.4095 34.9998C30.2744 34.9998 30.1251 34.9371 30.019 34.8316L30.018 34.8306L21.9218 26.6214L21.646 26.7862C19.4133 28.12 16.9111 28.8171 14.3844 28.8171C6.45865 28.8171 0 22.352 0 14.4086C0 6.4651 6.45865 0 14.3844 0C22.3102 0 28.7689 6.4651 28.7689 14.4086C28.7689 16.8533 28.1168 19.2825 26.8642 21.4695L26.7096 21.7393L34.838 29.9711ZM23.823 14.4086C23.823 9.19417 19.5923 4.95366 14.3844 4.95366C9.17662 4.95366 4.94583 9.19417 4.94583 14.4086C4.94583 19.623 9.17662 23.8635 14.3844 23.8635C19.5923 23.8635 23.823 19.623 23.823 14.4086Z" fill="#fff"/>
</svg>
