<svg width="50" height="50" viewBox="0 0 50 50" fill="none" xmlns="http://www.w3.org/2000/svg">
<g clip-path="url(#clip0_938_31525)">
<path d="M18.1596 38.6562C18.1596 38.6562 16.2377 39.825 19.4956 40.1594C23.4174 40.6594 25.5065 40.5766 29.8471 39.7422C30.7195 40.2764 31.6421 40.7239 32.6018 41.0781C22.8362 45.2531 10.4768 40.8281 18.1581 38.6562H18.1596ZM16.9096 33.2297C16.9096 33.2297 14.8221 34.8156 18.0784 35.1516C22.3362 35.5687 25.6752 35.6516 31.4377 34.4844C31.9982 35.0527 32.6843 35.4815 33.4409 35.7359C21.669 39.2422 8.47836 36.0703 16.9096 33.2312V33.2297ZM39.9518 42.7453C39.9518 42.7453 41.3706 43.9141 38.3659 44.8328C32.7721 46.5047 14.9065 47.0047 9.89712 44.8328C8.14399 44.0828 11.4831 42.9969 12.5534 42.8297C13.6393 42.5797 14.2252 42.5797 14.2252 42.5797C12.3034 41.2437 1.4518 45.3344 8.71587 46.5016C28.669 49.7578 45.1159 45.0828 39.9393 42.7453H39.9518ZM19.0627 27.5516C19.0627 27.5516 9.96274 29.7234 15.8065 30.4734C18.3112 30.8078 23.2362 30.7234 27.8284 30.3906C31.5846 30.0562 35.344 29.3906 35.344 29.3906C35.344 29.3906 34.0081 29.975 33.0893 30.5594C23.8237 32.9812 6.0393 31.8953 11.1331 29.3906C15.4737 27.3031 19.0643 27.5547 19.0643 27.5547L19.0627 27.5516ZM35.344 36.6516C44.694 31.8078 40.3534 27.1359 37.3471 27.7187C36.5971 27.8859 36.2612 28.0531 36.2612 28.0531C36.2612 28.0531 36.5112 27.5531 37.0956 27.3859C43.0237 25.2984 47.6987 33.6469 35.1737 36.9016C35.1737 36.9016 35.2565 36.8187 35.3409 36.6516H35.344ZM19.9846 49.8422C29.0002 50.4266 42.7768 49.5078 43.1096 45.2484C43.1096 45.2484 42.4424 46.9203 35.6799 48.1703C27.9987 49.5891 18.4815 49.4203 12.8877 48.5047C12.8877 48.5047 14.0565 49.5047 19.9846 49.8406V49.8422Z" fill="white"/>
<path d="M29.6816 0.00146484C29.6816 0.00146484 34.8581 5.26084 24.7565 13.1921C16.6581 19.6202 22.9206 23.2937 24.7565 27.4687C19.9972 23.2108 16.5753 19.453 18.9128 15.9483C22.3347 10.7702 31.7691 8.28115 29.6816 0.00146484ZM27.0253 23.9624C29.4472 26.7171 26.3581 29.2218 26.3581 29.2218C26.3581 29.2218 32.5362 26.0499 29.6972 22.1249C27.1097 18.3687 25.1034 16.5312 35.9581 10.2702C35.9581 10.2702 18.844 14.528 27.0253 23.9624V23.9624Z" fill="white"/>
</g>
<defs>
<clipPath id="clip0_938_31525">
<rect width="50" height="50" fill="white"/>
</clipPath>
</defs>
</svg>
