<svg width="50" height="50" viewBox="0 0 50 50" fill="none" xmlns="http://www.w3.org/2000/svg">
<g clip-path="url(#clip0_938_31275)">
<path d="M38.6893 26.5669C38.6318 20.2412 43.8602 17.2018 44.0957 17.0524C41.1541 12.7491 36.5807 12.163 34.949 12.0941C31.0593 11.6977 27.3534 14.3865 25.377 14.3865C23.4006 14.3865 20.3555 12.1515 17.1265 12.2147C12.8806 12.2779 8.96795 14.6796 6.77892 18.4831C2.37215 26.1245 5.65281 37.4603 9.95042 43.6712C12.0533 46.7048 14.5525 50.1233 17.8447 49.9969C21.0162 49.8705 22.2113 47.9458 26.0377 47.9458C29.8642 47.9458 30.9444 49.9969 34.2882 49.9337C37.6953 49.8648 39.8556 46.8312 41.9412 43.7861C44.3485 40.2641 45.3425 36.8513 45.4 36.6732C45.3253 36.6445 38.7582 34.128 38.6893 26.5669" fill="white"/>
<path d="M32.3982 7.9862C34.1448 5.87187 35.3227 2.93019 35.0009 0C32.4844 0.103418 29.4393 1.67768 27.6352 3.79201C26.0207 5.65929 24.6016 8.65268 24.9866 11.5254C27.7846 11.7437 30.6516 10.0948 32.3982 7.9862Z" fill="white"/>
</g>
<defs>
<clipPath id="clip0_938_31275">
<rect width="50" height="50" fill="white"/>
</clipPath>
</defs>
</svg>
