<svg width="50" height="50" viewBox="0 0 50 50" fill="none" xmlns="http://www.w3.org/2000/svg">
<path d="M3.75 21.3281C3.67188 21.3281 3.59375 21.25 3.67187 21.1718L4.21875 20.5468C4.29688 20.4687 4.375 20.3906 4.45312 20.3906H13.125C13.2031 20.3906 13.2812 20.4687 13.2031 20.5468L12.8125 21.1718C12.7344 21.25 12.6563 21.3281 12.5781 21.3281H3.75ZM0.078125 23.5937C0 23.5937 0 23.5156 0 23.4375L0.546875 22.8125C0.546875 22.7343 0.703125 22.6562 0.78125 22.6562H11.875C11.9531 22.6562 12.0312 22.7343 12.0312 22.8125L11.875 23.3593C11.875 23.4375 11.7187 23.5156 11.6406 23.5156L0.078125 23.5937V23.5937ZM6.01562 25.7812C5.9375 25.7812 5.85937 25.7031 5.9375 25.625L6.25 25.0781C6.32813 24.9999 6.40625 24.9218 6.48438 24.9218H11.3281C11.4063 24.9218 11.4844 24.9999 11.4844 25.0781L11.4063 25.625C11.4063 25.7031 11.3281 25.7812 11.25 25.7812H6.01562ZM31.25 20.8593L27.1875 21.9531C26.7969 22.0312 26.7969 22.1093 26.4844 21.7187C26.0938 21.3281 25.8594 21.0156 25.3125 20.7812C23.75 20 22.2656 20.2343 20.9375 21.1718C19.2969 22.2656 18.4375 23.8281 18.4375 25.7812C18.4375 27.7343 19.7656 29.2968 21.7187 29.6093C23.3594 29.8437 24.7656 29.2187 25.8594 27.9687C26.0937 27.7343 26.25 27.4218 26.4844 27.0312H21.7969C21.25 27.0312 21.1719 26.7187 21.3281 26.3281C21.6406 25.5468 22.2656 24.2968 22.5781 23.6718C22.6562 23.5156 22.8125 23.2812 23.2031 23.2812H32.0312C31.9531 23.9062 31.9531 24.6093 31.875 25.2343C31.6406 26.9531 30.9375 28.5937 29.8438 30C28.125 32.3437 25.7812 33.75 22.8906 34.1406C20.4687 34.4531 18.2812 33.9843 16.3281 32.4999C14.5312 31.1718 13.5156 29.2968 13.2031 27.1093C12.8906 24.4531 13.6719 22.1093 15.2344 20C16.9531 17.7343 19.2188 16.3281 22.0313 15.7812C24.2969 15.3906 26.4844 15.625 28.5156 16.9531C29.8438 17.8125 30.7031 18.9843 31.3281 20.3906C31.6406 20.7031 31.5625 20.7812 31.25 20.8593V20.8593Z" fill="white"/>
<path d="M39.2966 34.3751C37.1091 34.2969 35.0779 33.6719 33.3591 32.2657C31.9529 31.0157 31.0154 29.4532 30.7029 27.5782C30.2341 24.8438 31.0154 22.4219 32.656 20.2344C34.4529 17.8907 36.5623 16.7188 39.4529 16.1719C41.9529 15.7032 44.2966 16.0157 46.406 17.4219C48.3591 18.7501 49.531 20.5469 49.8435 22.8126C50.2341 26.0938 49.2966 28.7501 47.031 31.0938C45.3904 32.7344 43.4373 33.7501 41.1716 34.2188C40.6248 34.2188 39.9216 34.2969 39.2966 34.3751V34.3751ZM45.0779 24.5313C45.0779 24.2188 45.0779 23.9844 44.9998 23.7501C44.531 21.3282 42.3435 20.0001 39.9998 20.5469C37.7341 21.0938 36.2498 22.5001 35.7029 24.7657C35.2341 26.6407 36.1716 28.5938 37.9685 29.3751C39.2966 29.9219 40.6248 29.9219 41.9529 29.2188C43.906 28.1251 44.9998 26.5626 45.0779 24.5313V24.5313Z" fill="white"/>
</svg>
