<svg width="50" height="50" viewBox="0 0 50 50" fill="none" xmlns="http://www.w3.org/2000/svg">
<g clip-path="url(#clip0_938_31353)">
<path fill-rule="evenodd" clip-rule="evenodd" d="M24.9998 37.5C11.1931 37.5 0 31.6925 0 24.5288C0 17.3652 11.1931 11.5576 24.9998 11.5576C38.8066 11.5576 49.9997 17.3651 49.9997 24.5288C49.9997 31.6925 38.8066 37.5 24.9998 37.5ZM49.0231 24.5286C49.0231 31.1605 38.2674 36.5366 24.9998 36.5366C11.7322 36.5366 0.976562 31.1605 0.976562 24.5286C0.976562 17.8968 11.7322 12.5206 24.9998 12.5206C38.2674 12.5206 49.0231 17.8968 49.0231 24.5286Z" fill="white"/>
<path d="M13.5829 26.0175C14.6739 26.0175 15.4883 25.8191 16.0035 25.428C16.5133 25.0409 16.8654 24.3701 17.05 23.4344C17.222 22.5599 17.1565 21.9492 16.8552 21.6197C16.5471 21.2831 15.8811 21.1124 14.8756 21.1124H13.1323L12.1656 26.0176H13.5828L13.5829 26.0175ZM7.88055 32.0599C7.79962 32.0599 7.72277 32.0242 7.67132 31.9625C7.64587 31.932 7.62757 31.8964 7.61773 31.8582C7.60788 31.82 7.60672 31.78 7.61435 31.7413L10.1758 18.7425C10.1878 18.6815 10.221 18.6266 10.2696 18.5871C10.3182 18.5476 10.3792 18.526 10.4421 18.526H15.9627C17.6977 18.526 18.9892 18.9898 19.8009 19.9072C20.6169 20.8285 20.8689 22.1165 20.5498 23.7351C20.42 24.3945 20.1966 25.0069 19.8861 25.5554C19.5751 26.1043 19.1642 26.6122 18.6645 27.0653C18.0663 27.6175 17.3892 28.018 16.6539 28.2536C15.9303 28.4861 15.001 28.6041 13.8917 28.6041H11.6563L11.0179 31.8435C11.0059 31.9045 10.9728 31.9594 10.9242 31.9989C10.8757 32.0384 10.8147 32.06 10.7517 32.0601H7.88055V32.0599Z" fill="white"/>
<path d="M27.1326 28.6039C27.0516 28.6039 26.9748 28.5682 26.9234 28.5065C26.8719 28.4448 26.8509 28.3638 26.8664 28.2853L27.9994 22.5337C28.1072 21.9868 28.0806 21.5942 27.9246 21.4283C27.8291 21.3269 27.5423 21.1568 26.6943 21.1568H24.6415L23.2169 28.3873C23.2049 28.4483 23.1718 28.5032 23.1232 28.5427C23.0746 28.5822 23.0136 28.6038 22.9506 28.6038H20.1023C20.0623 28.6038 20.0228 28.5951 19.9866 28.5783C19.9504 28.5614 19.9185 28.5369 19.893 28.5065C19.8676 28.476 19.8493 28.4404 19.8394 28.4022C19.8296 28.3639 19.8284 28.324 19.836 28.2853L22.3975 15.2864C22.4095 15.2254 22.4427 15.1705 22.4913 15.131C22.5398 15.0915 22.6008 15.0699 22.6638 15.0699H25.5121C25.5521 15.0699 25.5916 15.0787 25.6278 15.0955C25.664 15.1123 25.6959 15.1369 25.7214 15.1673C25.7468 15.1977 25.7651 15.2334 25.775 15.2716C25.7848 15.3099 25.786 15.3498 25.7784 15.3885L25.1603 18.5259H27.3685C29.0508 18.5259 30.1915 18.8184 30.8561 19.4203C31.5343 20.0342 31.7447 21.0158 31.4843 22.3384L30.2925 28.3875C30.2805 28.4484 30.2474 28.5034 30.1988 28.5429C30.1502 28.5824 30.0892 28.604 30.0262 28.604H27.1327L27.1326 28.6039Z" fill="white"/>
<path d="M35.991 26.0175C37.082 26.0175 37.8964 25.8191 38.4116 25.428C38.9214 25.0409 39.2735 24.3703 39.4582 23.4344C39.6302 22.5599 39.5647 21.9492 39.2633 21.6197C38.9552 21.2831 38.2892 21.1124 37.2837 21.1124H35.5404L34.5737 26.0176H35.9909L35.991 26.0175ZM30.2888 32.0599C30.2079 32.0599 30.131 32.0242 30.0796 31.9625C30.0541 31.9321 30.0358 31.8964 30.026 31.8582C30.0161 31.82 30.0149 31.78 30.0225 31.7413L32.584 18.7425C32.596 18.6815 32.6292 18.6265 32.6778 18.5871C32.7264 18.5476 32.7874 18.526 32.8504 18.526H38.3709C40.1061 18.526 41.3973 18.9898 42.2091 19.9072C43.0252 20.8285 43.277 22.1164 42.9581 23.7351C42.8281 24.3945 42.6048 25.0069 42.2942 25.5554C41.9832 26.1043 41.5723 26.6122 41.0726 27.0653C40.4744 27.6175 39.7973 28.018 39.062 28.2536C38.3384 28.4861 37.4091 28.6041 36.2998 28.6041H34.0641L33.426 31.8435C33.414 31.9045 33.3809 31.9595 33.3322 31.999C33.2836 32.0385 33.2226 32.0601 33.1596 32.0601H30.2887L30.2888 32.0599Z" fill="white"/>
</g>
<defs>
<clipPath id="clip0_938_31353">
<rect width="50" height="50" fill="white"/>
</clipPath>
</defs>
</svg>
