<svg width="50" height="50" viewBox="0 0 50 50" fill="none" xmlns="http://www.w3.org/2000/svg">
<path d="M25.001 29.4234C27.4669 29.4234 29.4659 27.4244 29.4659 24.9585C29.4659 22.4926 27.4669 20.4937 25.001 20.4937C22.5351 20.4937 20.5361 22.4926 20.5361 24.9585C20.5361 27.4244 22.5351 29.4234 25.001 29.4234Z" fill="white"/>
<path fill-rule="evenodd" clip-rule="evenodd" d="M25.0004 15.8804C30.9951 15.8804 36.564 16.7406 40.7629 18.1861C45.822 19.9278 48.9326 22.5678 48.9326 24.9584C48.9326 27.4495 45.636 30.2541 40.2032 32.0542C36.0958 33.415 30.6909 34.1254 25.0004 34.1254C19.1661 34.1254 13.6413 33.4586 9.48767 32.0392C4.23258 30.243 1.06738 27.402 1.06738 24.9584C1.06738 22.5872 4.03731 19.9676 9.02532 18.2285C13.2399 16.7592 18.9463 15.8804 24.9996 15.8804H25.0004Z" stroke="white" stroke-width="2.136"/>
<path fill-rule="evenodd" clip-rule="evenodd" d="M17.0974 20.4461C20.0923 15.2531 23.6194 10.8586 26.9693 7.94335C31.0055 4.43087 34.8464 3.05529 36.9172 4.2494C39.0753 5.49389 39.858 9.75085 38.7032 15.3562C37.831 19.5943 35.7454 24.6311 32.9025 29.5606C29.9878 34.6148 26.6503 39.0676 23.346 41.9559C19.1647 45.6109 15.1224 46.9336 13.0055 45.7128C10.9514 44.5291 10.1659 40.6469 11.1513 35.4571C11.9839 31.072 14.0733 25.6898 17.0965 20.446L17.0974 20.4461Z" stroke="white" stroke-width="2.136"/>
<path fill-rule="evenodd" clip-rule="evenodd" d="M17.1051 29.5738C14.1018 24.3867 12.057 19.1352 11.2035 14.7771C10.1761 9.52609 10.9025 5.5113 12.9714 4.31372C15.1274 3.06558 19.2063 4.51343 23.4859 8.31338C26.7216 11.1863 30.0441 15.5079 32.8952 20.4328C35.8183 25.482 38.0092 30.5975 38.8614 34.9026C39.9398 40.3505 39.067 44.5131 36.9521 45.7374C34.9 46.9254 31.1449 45.6677 27.1408 42.2219C23.7576 39.3107 20.1381 34.8124 17.1051 29.5737V29.5738Z" stroke="white" stroke-width="2.136"/>
</svg>
