<svg width="50" height="50" viewBox="0 0 50 50" fill="none" xmlns="http://www.w3.org/2000/svg">
<g clip-path="url(#clip0_938_31161)">
<path fill-rule="evenodd" clip-rule="evenodd" d="M24.702 0.0569522C24.7493 0.00749494 24.7967 -0.0419618 24.8441 0.0527781L24.8447 0.137446L26.1781 2.64184C26.4781 3.10434 26.8031 3.51371 27.1859 3.89496C28.3031 5.01215 29.3641 6.18246 30.3172 7.43559C32.5781 10.4043 34.1031 13.7012 35.1922 17.2668C35.8453 19.445 36.2 21.6793 36.2266 23.9387C36.3359 30.6934 34.0203 36.4934 29.3516 41.3137C28.5992 42.0661 27.7951 42.7637 26.9333 43.3855L25.0002 8.20291L23.8293 43.7204C23.0558 43.113 22.3078 42.4812 21.605 41.8043C18.5003 38.7543 16.1034 35.2403 14.7691 31.0465C14.28 29.4668 13.6534 23.9918 13.7894 22.4403C14.0863 18.1387 15.1331 14.0528 17.1644 10.2403C18.6909 7.40747 20.5972 4.87465 23.0191 2.77778C23.0678 2.73512 23.1166 2.69279 23.1652 2.65061C23.5509 2.3158 23.9261 1.99009 24.2175 1.57934C24.5159 1.11372 24.7066 0.626216 24.68 0.0793406C24.6873 0.0722322 24.6946 0.0645922 24.702 0.0569522ZM23.8667 43.7498C23.92 43.7915 23.9733 43.8331 24.0268 43.8746C24.0275 43.9207 24.0312 43.9698 24.0533 44.0373C24.5439 45.481 24.6783 46.9513 24.7611 48.4498V48.9966C24.7611 49.0274 24.761 49.0564 24.761 49.0838C24.7604 49.3461 24.7602 49.4584 24.815 49.526C24.856 49.5766 24.9278 49.6023 25.0533 49.6471C25.1143 49.6689 25.1879 49.6952 25.2767 49.731C25.3421 49.7553 25.4097 49.7748 25.4782 49.7946C25.6389 49.8411 25.8046 49.8889 25.958 50.0029C26.122 50.0029 26.1486 49.8669 26.1486 49.7576L26.0673 48.8591V46.3529C26.0454 45.992 26.0969 45.6332 26.1463 45.2888C26.1567 45.2157 26.1671 45.1433 26.1767 45.0716L26.1783 45.0701C26.221 44.5818 26.4135 44.1583 26.6514 43.7498H23.8667Z" fill="white"/>
</g>
<defs>
<clipPath id="clip0_938_31161">
<rect width="50" height="50" fill="white"/>
</clipPath>
</defs>
</svg>
