<svg width="50" height="50" viewBox="0 0 50 50" fill="none" xmlns="http://www.w3.org/2000/svg">
<g clip-path="url(#clip0_938_31567)">
<path d="M12.2802 49.4028L39.1277 33.461L39.2552 33.3853L39.3208 33.2523L49.4807 12.6593L46.8535 47.0566L12.2802 49.4028Z" stroke="white"/>
<path d="M43.8674 26.7484L46.6885 46.2186L36.1837 36.8947L43.8674 26.7484Z" stroke="white"/>
<path d="M14.4761 49.2165L24.121 46.1731L40.5454 47.4624L14.4761 49.2165Z" stroke="white"/>
<path d="M4.07177 33.9907L15.4879 31.5499L10.3 48.5458L4.07177 33.9907Z" stroke="white"/>
<path d="M29.8588 16.9365L34.7956 36.2741L15.7304 30.1799L29.8588 16.9365Z" stroke="white"/>
<path d="M31.08 16.9562L34.6909 5.28241L47.658 15.8731L31.08 16.9562Z" stroke="white"/>
<path d="M33.6898 4.30865L29.5556 0.638831L40.2426 0.687399L33.6898 4.30865Z" stroke="white"/>
<path d="M3.02454 33.4749L0.596995 37.9023L1.06081 28.2006L3.02454 33.4749Z" stroke="white"/>
<path d="M3.72193 33.1701L1.0299 25.5341C1.1768 25.2577 1.33407 24.9617 1.49954 24.6502C2.46099 22.8403 3.69939 20.5091 4.78836 18.4867C5.44899 17.2597 6.05334 16.1488 6.50686 15.338C6.73395 14.9319 6.92117 14.6048 7.05784 14.377C7.12668 14.2623 7.17927 14.1786 7.2159 14.1243C7.21973 14.1187 7.22319 14.1136 7.22629 14.1091C7.2316 14.1051 7.23581 14.1017 7.23874 14.0994C7.23961 14.0987 7.24036 14.0981 7.24099 14.0976C7.26828 14.0761 7.29975 14.05 7.33335 14.0213C7.4012 13.9634 7.49065 13.8844 7.59783 13.7881C7.81285 13.5949 8.10888 13.3234 8.46596 12.9929C9.18059 12.3315 10.146 11.4282 11.2102 10.4296C11.8255 9.85233 12.4738 9.24321 13.1262 8.63026C14.7007 7.15093 16.2989 5.64936 17.5127 4.51987L28.0886 0.561939L33.995 4.73256L30.0665 17.211L15.8129 30.4577L3.72193 33.1701ZM7.24711 14.0804C7.24714 14.0803 7.247 14.0805 7.24672 14.0808C7.24679 14.0808 7.24685 14.0807 7.24691 14.0806L7.24711 14.0804ZM7.12661 14.1746C7.12383 14.1761 7.12101 14.1776 7.11813 14.179C7.12098 14.1776 7.1238 14.1761 7.12661 14.1746Z" stroke="white"/>
<path d="M11.0653 11.0065L11.0653 11.0066C7.37727 14.662 4.612 18.7717 3.22451 22.4007C1.8199 26.0745 1.89236 29.0542 3.51299 30.6881L3.51324 30.6884C4.31216 31.495 5.44867 31.8787 6.87993 31.8561C8.31695 31.8333 10.0151 31.3993 11.8628 30.6091C15.5561 29.0295 19.7412 26.0722 23.4355 22.4106C27.1265 18.7521 29.9216 14.7006 31.3383 11.1307C32.7721 7.51768 32.7263 4.59982 31.1092 2.96694L11.0653 11.0065ZM11.0653 11.0065C14.7565 7.34669 18.9689 4.44966 22.6902 2.92937M11.0653 11.0065L22.6902 2.92937M22.6902 2.92937C24.5518 2.16887 26.2653 1.76326 27.715 1.76172M22.6902 2.92937L27.715 1.76172M27.715 1.76172C29.1599 1.76019 30.3074 2.15811 31.1091 2.96681L27.715 1.76172Z" stroke="white"/>
<path d="M34.4322 37.2073C27.843 43.2835 20.5731 48.3095 11.0751 49.417L16.5004 31.4466L34.4322 37.2073Z" stroke="white"/>
<path d="M31.1608 17.9084L48.3343 16.7592C45.8387 24.1635 41.0961 30.2754 35.7275 35.9971L31.1608 17.9084Z" stroke="white"/>
<path d="M49.2963 6.7436C50.0046 9.46042 49.57 12.665 48.7333 15.4552L35.3483 4.50872L42.191 0.729134C44.356 1.12399 45.9281 1.90803 47.0519 2.92455C48.2047 3.96722 48.9149 5.28077 49.2963 6.7436Z" stroke="white"/>
<path d="M3.35101 34.8573L9.62187 49.5022C8.12884 49.4369 6.14946 49.2321 4.41331 48.218C2.42105 47.0543 0.660231 44.7658 0.498134 40.0761L3.35101 34.8573Z" stroke="white"/>
<path d="M32.1541 17.8742L48.2258 16.8017C47.7433 18.4197 46.8049 20.4653 45.8999 22.1904C45.3866 23.169 44.892 24.0292 44.5114 24.6308C44.3585 24.8724 44.2281 25.0657 44.125 25.2061C44.0866 25.1827 44.045 25.1574 44.0003 25.1302C43.7285 24.9647 43.3451 24.7306 42.8759 24.4439C41.9375 23.8705 40.6569 23.0867 39.2424 22.2204C36.9337 20.8064 34.2688 19.1726 32.1541 17.8742ZM44.439 25.396C44.4396 25.3963 44.4402 25.3967 44.4408 25.397L44.4386 25.3958C44.4387 25.3958 44.4388 25.3959 44.4389 25.396C44.232 25.2806 44.0483 25.3629 44.0171 25.3777C43.9823 25.3943 43.9605 25.411 43.9538 25.4166L44.439 25.396Z" stroke="white"/>
<path d="M34.4023 37.2239C31.4104 40.1179 28.1513 42.8074 24.1094 45.063L17.1643 31.6639L34.4023 37.2239Z" stroke="white"/>
<path d="M9.45792 49.1884C6.84971 49.3068 4.53901 48.918 2.79249 46.6459L3.73666 35.402C3.76338 35.4599 3.7907 35.5194 3.81859 35.5805C4.29966 36.6339 4.93491 38.1192 5.62959 39.7846C6.9114 42.8576 8.38842 46.5269 9.45792 49.1884Z" stroke="white"/>
<path d="M35.9701 4.17442L42.2428 0.71788C44.2417 1.06783 45.7988 1.76353 46.9509 2.74671C47.9553 3.60385 48.6726 4.69688 49.1035 6.01756L35.9701 4.17442Z" stroke="white"/>
</g>
<defs>
<clipPath id="clip0_938_31567">
<rect width="50" height="50" fill="white"/>
</clipPath>
</defs>
</svg>
