<svg width="50" height="50" viewBox="0 0 50 50" fill="none" xmlns="http://www.w3.org/2000/svg">
<path fill-rule="evenodd" clip-rule="evenodd" d="M2.95605 0.00146484L6.96855 45.003L24.9717 49.9999L43.0279 44.9968L47.0436 0.00146484H2.95605ZM12.6482 25.8908L11.1592 9.2002H24.9785H24.9998H38.8066L38.6754 10.6814L38.4191 13.4783L38.3098 14.7189H24.9998V14.7205H17.192L17.6967 20.3721H24.9998V20.5414L25.0004 20.3689H37.8285L36.3129 37.3143L24.9973 40.4502V40.4166L24.9748 40.4236L13.6686 37.2986L12.8951 28.633H18.4389L18.8295 33.0346L24.9764 34.6939L24.9998 34.6877V34.7073L31.1535 33.0471L31.7785 25.8908H24.9998H24.9816H12.6482Z" fill="white"/>
</svg>
