<svg width="50" height="50" viewBox="0 0 50 50" fill="none" xmlns="http://www.w3.org/2000/svg">
<g clip-path="url(#clip0_938_31507)">
<path d="M25.0342 13.6733C18.7417 13.6733 13.6396 18.7754 13.6396 25.0679C13.6396 31.3604 18.7417 36.4625 25.0342 36.4625C31.3267 36.4625 36.4288 31.3604 36.4288 25.0679C36.3948 18.7754 31.2927 13.6733 25.0342 13.6733V13.6733Z" fill="white"/>
<path d="M41.3603 14.6938C44.2345 14.6938 46.5644 12.3639 46.5644 9.48973C46.5644 6.61559 44.2345 4.28564 41.3603 4.28564C38.4862 4.28564 36.1562 6.61559 36.1562 9.48973C36.1562 12.3639 38.4862 14.6938 41.3603 14.6938Z" fill="white"/>
<path d="M47.7551 14.6939L47.551 14.2177L47.2109 14.6259C46.3605 15.5782 45.2721 16.3265 44.0816 16.7687L43.7415 16.9048L43.8776 17.2449C44.932 19.7279 45.4422 22.381 45.4422 25.068C45.4422 36.3265 36.2925 45.5102 25 45.5102C13.7075 45.5102 4.59184 36.3265 4.59184 25.068C4.59184 13.8095 13.7415 4.62585 25.034 4.62585C28.0952 4.62585 31.0204 5.30612 33.7755 6.59864L34.0816 6.73469L34.2177 6.39456C34.7279 5.20408 35.5102 4.18367 36.5306 3.36734L36.9388 3.02721L36.4626 2.78911C32.8912 0.95238 29.0476 0 25 0C11.2245 0 0 11.2245 0 25C0 38.7755 11.2245 50 25 50C38.7755 50 50 38.7755 50 25C50 21.4626 49.2517 17.9932 47.7551 14.6939V14.6939Z" fill="white"/>
</g>
<defs>
<clipPath id="clip0_938_31507">
<rect width="50" height="50" fill="white"/>
</clipPath>
</defs>
</svg>
