<svg width="50" height="50" viewBox="0 0 50 50" fill="none" xmlns="http://www.w3.org/2000/svg">
<path d="M22.9004 0.667286C24.1504 -0.0405267 25.7442 -0.0436517 26.9629 0.667286L45.6254 11.1876C46.7926 11.8438 47.5739 13.1454 47.5629 14.4907V35.5845C47.5708 36.986 46.7129 38.3157 45.4817 38.9595L26.9192 49.4313C26.2843 49.7822 25.567 49.9567 24.8419 49.9366C24.1168 49.9165 23.4103 49.7027 22.7958 49.3173L17.2254 46.0985C16.8458 45.872 16.4192 45.6923 16.1504 45.3251C16.3879 45.0063 16.8098 44.9657 17.1536 44.8251C17.9286 44.5782 18.6379 44.2001 19.3504 43.8001C19.5301 43.6751 19.7504 43.722 19.9223 43.8345L24.6723 46.5813C25.0114 46.7767 25.3551 46.5188 25.6458 46.3548L43.8723 36.0688C44.0973 35.9595 44.2223 35.722 44.2036 35.4751V14.5845C44.2286 14.3032 44.0676 14.047 43.8129 13.9329L25.2973 3.50635C25.1906 3.43255 25.064 3.39288 24.9343 3.3926C24.8045 3.39232 24.6778 3.43144 24.5708 3.50479L6.08169 13.9532C5.83169 14.0673 5.65982 14.3204 5.69107 14.6017V35.4923C5.66919 35.7392 5.80044 35.972 6.02701 36.0782L10.9676 38.8673C11.8958 39.3673 13.0348 39.6485 14.0567 39.2813C14.5039 39.1128 14.8888 38.8116 15.16 38.4181C15.4312 38.0246 15.5756 37.5577 15.5739 37.0798L15.5786 16.3142C15.5567 16.0063 15.8473 15.7517 16.1458 15.7829H18.5208C18.8333 15.7751 19.0786 16.1063 19.0364 16.4157L19.0317 37.3126C19.0333 39.1688 18.2708 41.1876 16.5536 42.0985C14.4379 43.1923 11.8223 42.9626 9.73169 41.911L4.41919 38.9735C3.16919 38.3485 2.33013 36.9985 2.33794 35.5985V14.5048C2.34314 13.8192 2.53162 13.1475 2.88383 12.5593C3.23604 11.9711 3.73918 11.4878 4.34107 11.1595L22.9004 0.667286ZM28.2817 15.2892C30.9801 15.1329 33.8692 15.186 36.2973 16.5157C38.177 17.5345 39.2192 19.672 39.2536 21.7626C39.2004 22.0438 38.9067 22.2001 38.6379 22.1798C37.8567 22.1782 37.0723 22.1907 36.2879 22.1751C35.9551 22.1876 35.7629 21.8813 35.7208 21.5876C35.4958 20.5876 34.9504 19.5985 34.0098 19.1157C32.5661 18.3923 30.8911 18.4282 29.3161 18.4438C28.1661 18.5063 26.9301 18.6048 25.9567 19.2798C25.2067 19.7923 24.9817 20.8423 25.2489 21.6579C25.4989 22.2563 26.1911 22.4485 26.7551 22.6267C30.0083 23.4767 33.4536 23.4079 36.6458 24.5126C37.9661 24.9688 39.2583 25.8563 39.7114 27.2392C40.302 29.0923 40.0442 31.3079 38.727 32.7954C37.6583 34.0204 36.102 34.6704 34.5473 35.0485C32.4801 35.5095 30.3364 35.5204 28.2379 35.3142C26.2645 35.0892 24.2114 34.5704 22.6879 33.2267C21.3848 32.0954 20.7504 30.3329 20.8129 28.6329C20.8286 28.3454 21.1145 28.1454 21.3911 28.1688H23.7348C24.0504 28.147 24.2817 28.4188 24.2973 28.7157C24.4426 29.6532 24.8004 30.6688 25.6317 31.2157C27.2348 32.2501 29.2458 32.1782 31.0801 32.2079C32.6004 32.1407 34.3067 32.1204 35.5489 31.1142C36.2051 30.5407 36.3973 29.5829 36.2208 28.7579C36.0286 28.061 35.2833 27.7376 34.6583 27.5079C31.4473 26.4923 27.9629 26.861 24.7833 25.711C23.4926 25.2548 22.2442 24.3923 21.7489 23.0657C21.0567 21.1907 21.3739 18.8673 22.8317 17.4298C24.2379 16.0001 26.3004 15.4485 28.2536 15.2517L28.2817 15.2892Z" fill="white"/>
</svg>
