<svg width="50" height="50" viewBox="0 0 50 50" fill="none" xmlns="http://www.w3.org/2000/svg">
<path d="M25.0276 32.1621C24.8713 37.7207 25.0666 43.3184 25.6096 44.6621C26.1526 46.0059 27.3186 48.666 31.3245 47.8106C34.6702 47.0938 35.8889 45.7051 36.4163 42.6406L37.6526 32.8418M20.2268 4.2969C20.2268 4.2969 2.09399 -3.11717 2.93774 13.7363C3.11743 17.3223 8.07446 40.8848 13.9924 33.7559C16.1526 31.1524 18.1057 29.1153 18.1057 29.1153M30.0198 2.94338C29.3948 3.13869 40.1057 -0.972637 46.1956 6.80666C48.344 9.55471 45.8538 20.7852 39.8909 29.6328" stroke="white" stroke-width="1.79" stroke-linecap="round" stroke-linejoin="round"/>
<path d="M39.8928 29.6288C39.8928 29.6288 40.2834 31.5429 45.9475 30.3749C48.4221 29.8632 46.9319 31.8085 44.4241 32.9726C42.3655 33.9296 37.7483 34.1738 37.6721 32.8554C37.4768 29.4472 40.1018 30.4824 39.9124 29.6288C39.7405 28.8593 38.5647 28.1054 37.7913 26.2226C37.1135 24.582 28.4944 11.9843 40.1819 13.8535C40.6116 13.7656 37.135 2.72064 26.1975 2.56048C15.26 2.40033 15.6057 16.0078 15.6057 16.0078" stroke="white" stroke-width="1.79" stroke-linecap="round" stroke-linejoin="bevel"/>
<path d="M21.9672 30.7967C20.4438 32.4999 20.893 32.7987 17.8461 33.4256C14.7641 34.0604 16.5766 35.1913 17.7563 35.4881C19.1899 35.8475 22.5063 36.3553 24.7485 33.2167C25.4321 32.2596 24.7446 30.7362 23.8071 30.3495C23.3539 30.162 22.7485 29.9276 21.9711 30.7987L21.9672 30.7967Z" stroke="white" stroke-width="1.79" stroke-linejoin="round"/>
<path d="M21.8678 30.7675C21.7116 29.7656 22.196 28.5761 22.7135 27.1816C23.4909 25.0917 25.2838 23.0019 23.8502 16.3671C22.7819 11.4257 15.6081 15.3378 15.6081 16.0078C15.6081 16.6777 15.9323 19.4062 15.4909 22.58C14.9108 26.7246 18.1276 30.2285 21.8307 29.871" stroke="white" stroke-width="1.79" stroke-linecap="round" stroke-linejoin="round"/>
<path d="M20.1599 15.908C20.1267 16.1366 20.5798 16.7479 21.1677 16.8299C21.7556 16.9119 22.2576 16.4354 22.2908 16.2049C22.324 15.9744 21.8709 15.7244 21.283 15.6424C20.6951 15.5604 20.1892 15.6815 20.1599 15.908V15.908Z" fill="white" stroke="white" stroke-width="0.5975"/>
<path d="M38.059 15.4412C38.0902 15.6698 37.639 16.2811 37.0512 16.3631C36.4633 16.4451 35.9574 15.9686 35.9281 15.7381C35.8988 15.5076 36.348 15.2576 36.9359 15.1756C37.5238 15.0936 38.0297 15.2147 38.059 15.4412Z" fill="white" stroke="white" stroke-width="0.2975"/>
<path d="M40.1602 13.8574C40.2578 15.6543 39.7734 16.875 39.7109 18.7871C39.6211 21.5645 41.0352 24.7441 38.9043 27.9277" stroke="white" stroke-width="1.79" stroke-linecap="round" stroke-linejoin="round"/>
</svg>
