<svg width="50" height="50" viewBox="0 0 50 50" fill="none" xmlns="http://www.w3.org/2000/svg">
<path d="M1.20898 34.6095C1.20898 33.8595 1.31367 33.2267 1.52148 32.7142C1.72205 32.2256 2.03398 31.7906 2.43242 31.4439C2.82619 31.1198 3.28416 30.8828 3.77617 30.7486C4.28867 30.6048 4.83867 30.533 5.43242 30.533C5.96757 30.5296 6.50049 30.6022 7.01523 30.7486C7.52617 30.8923 7.97461 31.1236 8.35898 31.4439C8.74336 31.7642 9.04648 32.1877 9.26992 32.7142C9.49336 33.2267 9.60586 33.858 9.60586 34.6095C9.60586 35.3283 9.49336 35.9439 9.26992 36.4564C9.06452 36.9423 8.75332 37.3763 8.35898 37.7267C7.97617 38.0627 7.52773 38.3017 7.01523 38.4455C6.50335 38.6073 5.96927 38.688 5.43242 38.6845C4.83867 38.6845 4.28867 38.6064 3.77617 38.4455C3.27992 38.3099 2.82062 38.0643 2.43242 37.7267C2.04805 37.3908 1.74492 36.9673 1.52148 36.4564C1.31367 35.9455 1.20898 35.3314 1.20898 34.6095M14.734 49.8377C13.9527 49.8377 13.1746 49.7814 12.359 49.6705C11.5434 49.5595 10.8637 49.4142 10.3215 49.2392V43.4845C10.8168 43.6439 11.2809 43.7564 11.7277 43.8205C12.2107 43.904 12.7001 43.9443 13.1902 43.9408C13.5902 43.9408 13.9652 43.8783 14.3152 43.7486C14.6891 43.6393 15.0179 43.4125 15.2527 43.1017C15.5246 42.7986 15.7402 42.383 15.8996 41.8548C16.059 41.3439 16.1387 40.6798 16.1387 39.8642V11.2314H23.4512V40.9423C23.4512 42.1736 23.2918 43.3236 22.9715 44.3798C22.6939 45.4223 22.1765 46.3854 21.4605 47.1923C20.773 48.008 19.8777 48.6455 18.773 49.1111C17.6684 49.5767 16.3277 49.8064 14.7449 49.8064M15.8387 4.26891C15.8387 3.58141 15.9434 3.01422 16.1512 2.55016C16.359 2.08609 16.6387 1.71891 16.9902 1.44703C17.3574 1.15953 17.7809 0.959532 18.2605 0.847032C18.7559 0.734532 19.2762 0.679845 19.8199 0.679845C20.3361 0.676308 20.851 0.732409 21.3543 0.847032C21.8106 0.948225 22.2374 1.15357 22.6012 1.44703C22.9801 1.73313 23.2774 2.11345 23.4637 2.55016C23.6871 2.99859 23.7996 3.56578 23.7996 4.26891C23.7996 4.94078 23.6871 5.50797 23.4637 5.98766C23.2559 6.45172 22.9684 6.82672 22.6012 7.11266C22.2301 7.39437 21.806 7.59843 21.3543 7.71266C20.851 7.82781 20.3362 7.88443 19.8199 7.88141C19.2762 7.88141 18.7574 7.82672 18.2605 7.71266C17.803 7.59482 17.3719 7.39122 16.9902 7.11266C16.6387 6.82516 16.359 6.44859 16.1512 5.98766C15.9434 5.52672 15.8387 4.95641 15.8387 4.26891M48.8387 30.0783C48.8387 31.4845 48.5824 32.7158 48.0574 33.7705C47.5561 34.8147 46.8066 35.7202 45.8746 36.408C44.9309 37.1111 43.7887 37.6392 42.4449 37.9908C41.1012 38.3423 39.6012 38.5189 37.9371 38.5189C37.0574 38.5189 36.2418 38.4877 35.4918 38.4252C34.7756 38.3812 34.0628 38.293 33.3574 38.1611C32.6855 38.033 32.0387 37.8736 31.4152 37.6814C30.7698 37.4811 30.1373 37.2411 29.5215 36.9627V30.922C30.1934 31.258 30.8965 31.547 31.6309 31.833L33.8605 32.5517L35.9949 33.008C36.6369 33.1147 37.2863 33.1707 37.9371 33.1752C38.5934 33.1752 39.1527 33.1205 39.6152 33.008C40.0793 32.8798 40.4543 32.6955 40.7402 32.5048C41.0434 32.2814 41.2605 32.0252 41.3871 31.7236C41.5298 31.424 41.6035 31.0961 41.6027 30.7642C41.6027 30.4283 41.5465 30.133 41.4355 29.8767C41.3418 29.6048 41.123 29.3252 40.7402 29.0377C40.373 28.7345 39.8293 28.4127 39.109 28.0314L36.2559 26.6252L33.209 25.0658C32.3621 24.5377 31.659 23.972 31.0996 23.3158C30.5546 22.6741 30.1391 21.9328 29.8762 21.133C29.6043 20.3017 29.4699 19.3205 29.4699 18.183C29.4699 16.9361 29.709 15.8486 30.1887 14.922C30.6645 13.9832 31.3643 13.1761 32.2262 12.572C33.1059 11.947 34.1605 11.4845 35.3918 11.1658C36.6387 10.8455 38.0215 10.6861 39.5402 10.6861C41.1387 10.6861 42.6574 10.8705 44.0965 11.2377C45.5355 11.6048 47.0137 12.1564 48.534 12.8939L46.3277 18.0736C45.1121 17.4986 43.9527 17.0267 42.8512 16.6595C41.7851 16.2982 40.6675 16.1119 39.5418 16.108C38.5512 16.108 37.8309 16.2845 37.3855 16.6361C36.9543 16.9877 36.7387 17.4673 36.7387 18.0736C36.7387 18.3939 36.7949 18.6986 36.9059 18.9377C37.0184 19.1783 37.2418 19.433 37.5777 19.7189C37.9137 19.9752 38.3855 20.2627 38.9918 20.5814L41.3668 21.7064L44.4355 23.1908C45.2914 23.6313 46.0823 24.1882 46.7855 24.8455C47.435 25.4605 47.9496 26.2038 48.2965 27.0283C48.648 27.8595 48.8246 28.8673 48.8246 30.0502" fill="white"/>
</svg>
