<svg width="50" height="50" viewBox="0 0 50 50" fill="none" xmlns="http://www.w3.org/2000/svg">
<g clip-path="url(#clip0_938_31201)">
<path fill-rule="evenodd" clip-rule="evenodd" d="M46.0563 38.9471C43.3369 38.8713 41.2272 39.1501 39.459 39.8939C38.9498 40.0984 38.1328 40.0984 38.0657 40.7392C38.3378 41.0081 38.3706 41.4482 38.6091 41.8208C39.0169 42.4972 39.7318 43.4084 40.3774 43.8811L42.5533 45.4361C43.8795 46.2466 45.3757 46.72 46.6675 47.5312C47.416 48.0046 48.1636 48.6128 48.9121 49.1203C49.2932 49.3907 49.5241 49.8308 50.0005 49.9989V49.8967C49.7627 49.5937 49.6941 49.1544 49.457 48.815L48.4357 47.8357C47.4503 46.5177 46.2255 45.3679 44.8993 44.4226C43.8109 43.6788 41.4314 42.6654 40.9894 41.4156L40.9223 41.3398C41.6692 41.2641 42.5533 41.0013 43.2683 40.7983C44.4252 40.4953 45.4785 40.5619 46.6675 40.2582L48.3008 39.7848V39.4818C47.6888 38.8736 47.2468 38.0624 46.6012 37.4883C44.8673 36.0014 42.9619 34.5479 40.9894 33.3314C39.9353 32.6558 38.5748 32.2157 37.4529 31.6423C37.0436 31.4393 36.3646 31.3378 36.1268 31C35.5132 30.2577 35.1741 29.2768 34.732 28.3974L31.944 22.5174C31.332 21.1995 30.957 19.8815 30.2101 18.6651C26.7072 12.9199 22.8978 9.43944 17.049 6.02565C15.7914 5.31593 14.2953 5.01068 12.7046 4.63954L10.1544 4.5032C9.60948 4.26687 9.06606 3.62456 8.58971 3.32007C6.65152 2.10362 1.65247 -0.532275 0.223412 2.94135C-0.694998 5.13793 1.58387 7.30043 2.35747 8.41614C2.93672 9.19327 3.68364 10.0719 4.09293 10.9505C4.32157 11.5247 4.3978 12.1337 4.63635 12.7419C5.17978 14.2287 5.69043 15.8853 6.40458 17.2714C6.78566 17.9811 7.1858 18.7257 7.66215 19.3672C7.93425 19.7459 8.41059 19.908 8.51196 20.5163C8.03561 21.1927 8.00284 22.2054 7.73074 23.0514C6.50594 26.8704 6.9823 31.6014 8.71622 34.413C9.26117 35.2576 10.5454 37.1171 12.2877 36.4066C13.8182 35.7984 13.4767 33.8722 13.9188 32.1824C14.0217 31.7771 13.9531 31.5067 14.1566 31.2356V31.3113L15.5513 34.1161C16.6054 35.7719 18.4422 37.4958 19.9719 38.6456C20.7874 39.2538 21.4337 40.3021 22.4535 40.6733V40.571H22.3864C22.1822 40.2681 21.8758 40.1317 21.6037 39.8954C20.9917 39.2872 20.3118 38.5434 19.8355 37.8677C18.4079 35.9756 17.1504 33.8798 16.0277 31.7173C15.4827 30.6698 15.0064 29.5207 14.5659 28.4732C14.3601 28.0672 14.3601 27.4582 14.0209 27.2567C13.5103 27.999 12.7633 28.6429 12.3876 29.5548C11.7413 31.0076 11.6742 32.7989 11.4364 34.6577C11.2992 34.6918 11.3602 34.6577 11.2992 34.7334C10.2124 34.4638 9.83737 33.3473 9.42962 32.402C8.40984 30.0025 8.23911 26.1501 9.12322 23.3786C9.36101 22.6689 10.3823 20.4382 9.97456 19.7626C9.76878 19.1203 9.09044 18.7492 8.71546 18.2417C8.2734 17.5994 7.79858 16.7889 7.49218 16.0792C6.67667 14.1856 6.26891 12.0912 5.38403 10.1984C4.97475 9.31977 4.26137 8.40705 3.68288 7.59659C3.03657 6.68387 2.32394 6.04156 1.81329 4.96069C1.64333 4.58197 1.40553 3.98056 1.67762 3.57457C1.74469 3.30417 1.88188 3.19585 2.15245 3.13526C2.59451 2.75654 3.8536 3.23675 4.29566 3.43823C5.55323 3.94572 6.60731 4.41836 7.66139 5.12733C8.13774 5.46515 8.6484 6.10746 9.26041 6.27713H9.97532C11.0637 6.51345 12.287 6.35287 13.306 6.65585C15.1085 7.2315 16.7403 8.07529 18.2037 8.98876C22.6578 11.7936 26.3314 15.7815 28.813 20.5473C29.2208 21.3245 29.3907 22.0342 29.7657 22.8454C30.4806 24.5019 31.3648 26.191 32.0774 27.8142C32.7923 29.4026 33.4721 31.0258 34.4919 32.3437C35.0026 33.0534 37.0421 33.4246 37.9598 33.7965C38.6404 34.0995 39.6937 34.3721 40.3072 34.7433C41.4627 35.453 42.6189 36.2642 43.7065 37.0414C44.2499 37.4458 45.9511 38.2911 46.0525 38.9653L46.0563 38.9471ZM11.3777 9.57957C10.9079 9.57544 10.4395 9.63222 9.98447 9.74848V9.82422H10.0515C10.3236 10.365 10.8 10.7369 11.1399 11.2103L11.9227 12.8328L11.9897 12.757C12.4661 12.4192 12.7046 11.8784 12.7046 11.0679C12.5004 10.8316 12.4668 10.5945 12.2969 10.3582C12.0926 10.0204 11.6506 9.85073 11.3777 9.58108V9.57957Z" fill="white"/>
</g>
<defs>
<clipPath id="clip0_938_31201">
<rect width="50" height="50" fill="white"/>
</clipPath>
</defs>
</svg>
