<svg width="50" height="50" viewBox="0 0 50 50" fill="none" xmlns="http://www.w3.org/2000/svg">
<path fill-rule="evenodd" clip-rule="evenodd" d="M47.0563 0L43.0398 44.9948L24.9855 50L6.98098 45.0018L2.96875 0H47.0563ZM11.1729 9.19873H24.9932H24.9935H25.0126H38.8191L37.8227 20.3699L37.688 21.852L36.391 36.3825L36.308 37.3149L25.0127 40.4454V40.4465L24.9873 40.4536L13.6815 37.315L12.9082 28.6489H15.4618H18.4487L18.8417 33.0508L24.9885 34.7106L24.9932 34.7094V34.7087L31.1489 33.0472L31.7896 25.8891H25.0128V25.8893H12.6617L12.167 20.3701H24.9932V20.3699H32.2682L32.7704 14.7181L25.0126 14.7181L24.9932 14.7181L11.6746 14.7181L11.1729 9.19873Z" fill="white"/>
</svg>
